<svg xmlns="http://www.w3.org/2000/svg" width="1112.57" height="835.75" viewBox="0 0 1112.57 835.75"><title>404</title><polygon points="286.84 559.53 605.35 743.56 849.54 603.41 533.51 417.26 286.84 559.53" fill="#635fd6"/><polygon points="63.7 688.53 63.7 762.02 0 725.33 63.7 688.53" fill="#9a97f3"/><polygon points="191.11 762.14 191.11 835.75 63.7 762.14 63.7 688.53 191.11 762.14" fill="#635fd6"/><polygon points="273.57 714.36 273.57 787.97 191.11 835.75 191.11 762.14 273.57 714.36" fill="#9a97f3"/><polygon points="210.57 603.59 210.57 679.24 143.68 641.46 210.57 603.59" fill="#9a97f3"/><polygon points="210.57 603.59 210.57 679.32 273.57 714.36 273.57 787.97 333.02 753.64 460.43 827.26 526.96 789.03 400.97 714.36 432.82 695.96 369.47 659.15 336.56 679.32 210.57 603.59" fill="#635fd6"/><polygon points="649.31 352.89 649.31 426.39 585.61 389.7 649.31 352.89" fill="#9a97f3"/><polygon points="776.72 426.5 776.72 500.12 649.31 426.5 649.31 352.89 776.72 426.5" fill="#635fd6"/><polygon points="859.17 378.73 859.17 452.34 776.72 500.12 776.72 426.5 859.17 378.73" fill="#9a97f3"/><polygon points="796.18 267.96 796.18 343.61 729.29 305.82 796.18 267.96" fill="#9a97f3"/><polygon points="796.18 267.96 796.18 343.69 859.17 378.73 859.17 452.34 918.63 418.01 1046.04 491.62 1112.57 453.4 986.58 378.73 1018.43 360.33 955.08 323.52 922.17 343.69 796.18 267.96" fill="#635fd6"/><polygon points="533.68 417.08 533.68 702.15 286.66 559.71 533.68 417.08" fill="#9a97f3"/><path d="M1491.56,524.44c-6.17-1.74-30.67-6.69-37.36-5.21a40,40,0,0,0-26.77,20.39,40.13,40.13,0,0,0-59.65,13.23,40.13,40.13,0,0,0-59.65,13.23,40.13,40.13,0,0,0-59.65,13.23,40.13,40.13,0,0,0-59.65,13.23,40.13,40.13,0,0,0-59.65,13.23A40.13,40.13,0,0,0,1069.54,619a40.13,40.13,0,0,0-59.65,13.23,40.13,40.13,0,0,0-59.65,13.23,40,40,0,0,0-32.88-7.15c-21.64,4.8-36.54,26.55-30.49,47.87-50.62-178.37,67.35-327.87,232.07-364.42C1272,287.84,1455.36,361.28,1491.56,524.44Z" transform="translate(-693.43 -313.67)" fill="#f48071"/><polyline points="189.38 356.77 585.55 697.56 797.9 211.12" fill="none" stroke="#6e6aee" stroke-miterlimit="10" stroke-width="2"/><polyline points="316.04 318.04 585.55 697.56 256.39 331.27" fill="none" stroke="#6e6aee" stroke-miterlimit="10" stroke-width="2"/><polyline points="434.75 291.7 585.55 697.56 376.27 304.67" fill="none" stroke="#6e6aee" stroke-miterlimit="10" stroke-width="2"/><polyline points="555.22 264.97 585.55 697.56 495.76 279.08" fill="none" stroke="#6e6aee" stroke-miterlimit="10" stroke-width="2"/><polyline points="673.93 238.63 585.55 697.56 614.87 251.73" fill="none" stroke="#6e6aee" stroke-miterlimit="10" stroke-width="2"/><line x1="733.58" y1="225.39" x2="585.55" y2="697.56" fill="none" stroke="#6e6aee" stroke-miterlimit="10" stroke-width="2"/><path d="M1097.67,534.22l-21.31-96a3.17,3.17,0,0,1,4.8-3.37l113.54,72.31a3.17,3.17,0,0,0,4.8-3.37l-21.31-96" transform="translate(-693.43 -313.67)" fill="none" stroke="#9a97f3" stroke-miterlimit="10" stroke-width="9"/><line x1="363.32" y1="152.31" x2="512.45" y2="119.22" fill="none" stroke="#9a97f3" stroke-miterlimit="10" stroke-width="9"/><line x1="376.96" y1="180.58" x2="519.06" y2="149.05" fill="none" stroke="#9a97f3" stroke-miterlimit="10" stroke-width="9"/></svg>