<svg xmlns="http://www.w3.org/2000/svg" viewBox="0 0 397 603"><title>application</title><rect x="186" y="209" width="24" height="212" fill="#f49075"/><polygon points="269 448.52 265 603 216 603 213 490 183 490 180 603 131 603 127 448.52 131 402 194 407.64 265 402 269 448.52" fill="#2e6b8e"/><rect x="186" y="191" width="24" height="24" fill="#9c5f41"/><rect x="186" y="43" width="30" height="154" fill="#b06c49"/><polygon points="203 214 274 214 261 418 203 421 203 214" fill="#f49075"/><polygon points="229.24 185.95 219.5 214.5 203.5 214.5 203.67 188.33 229.24 185.95" fill="#9c5f41"/><path d="M205,39l40.5-.5,9,74s-6,87-51,84C203.5,170.5,205,39,205,39Z" transform="translate(0)" fill="#b06c49"/><path d="M208.5,77.5v9s10-3,19,0c2-8,0-5,0-5Z" transform="translate(0)" fill="#111"/><path d="M236.58,97a3.16,3.16,0,0,0,.35-2.3c-1-3.44-9.46-5.06-20.32-2.41-5.79,1.41-9.55,4.34-10.07,7.26a.65.65,0,0,1,0-.13c-.83-3.5,3.44-7.16,10.5-8.44,11-2,19.31.12,20.14,3.61A3.27,3.27,0,0,1,236.58,97Z" transform="translate(0)" fill="#111" opacity="0.56" style="isolation:isolate"/><path d="M236.58,97c-1.91,3.28-8.12,7.14-13.66,8.45-6.9,1.63-15.39-2.44-16.38-5.9.52-2.92,4.28-5.85,10.07-7.26,10.86-2.65,19.28-1,20.32,2.41A3.16,3.16,0,0,1,236.58,97Z" transform="translate(0)" fill="#dddbff"/><circle cx="218.5" cy="98.5" r="6.5" fill="#111"/><circle cx="213.5" cy="100.5" r="1.5" fill="#dddbff"/><path d="M205.5,122.5a8.5,8.5,0,0,1,3.41,2.53,9.56,9.56,0,0,1,2,3.87,6.1,6.1,0,0,1,.18,2.26,3,3,0,0,1-1.28,2,5.38,5.38,0,0,1-4.26.35,6.46,6.46,0,0,0,3.8-1,2.26,2.26,0,0,0,.8-1.5,5.46,5.46,0,0,0-.21-1.88,11.16,11.16,0,0,0-1.6-3.64A12.64,12.64,0,0,0,205.5,122.5Z" transform="translate(0)" fill="#7a4b33"/><path d="M252,131.39s8.54-6.89,11.54-10.89,7-11,6-16-2-8-6-6-9,16.13-9,16.13Z" transform="translate(0)" fill="#b06c49"/><path d="M229.5,185.5h40l101,105L317,326l-17.5-51.5s5,171,0,184c-18,3-62,6-62,6s-3-68,0-95,5-70,0-84-19-62-19-62Z" transform="translate(0)" fill="#42408f"/><polygon points="218.5 223.5 219.5 216.5 229.5 185.5 237.5 209.5 218.5 223.5" fill="#9a97f3"/><polygon points="244.5 231.5 237.5 209.5 229.5 185.5 240.5 190.5 251.5 214.5 244.5 231.5" fill="#635fd6"/><path d="M322.5,275.5s-14,38-6,50,24,25,42,15,23-41,17-55-30-32-30-32Z" transform="translate(0)" fill="#9a97f3"/><path d="M352.45,5.88s-9.31,43.85-13.75,58.7l-8.62,28.83,46.29,13.85s18.8-81.93,20.63-88Z" transform="translate(0)" fill="#aed696"/><rect x="324.53" y="41.21" width="80.23" height="35.56" transform="translate(221.68 399.59) rotate(-76.42)" fill="none" stroke="#557841" stroke-miterlimit="10" stroke-width="2"/><circle cx="360.72" cy="22.63" r="5.47" transform="translate(235.69 361.75) rotate(-73.35)" fill="#85bb65"/><circle cx="346.37" cy="89.7" r="5.47" transform="translate(161.19 395.85) rotate(-73.35)" fill="#85bb65"/><circle cx="364.68" cy="57.11" r="10.94" transform="translate(205.48 390.14) rotate(-73.35)" fill="#85bb65"/><circle cx="384.3" cy="29.67" r="5.47" transform="translate(245.76 389.35) rotate(-73.35)" fill="#85bb65"/><path d="M337.83,12.87s-7.09,48.65-10.9,65.22l-7.4,32.16,51.65,11.89s14.78-91,16.35-97.82Z" transform="translate(0)" fill="#aed696"/><rect x="310.9" y="50.71" width="88" height="39" transform="translate(224.78 407.77) rotate(-80.11)" fill="none" stroke="#557841" stroke-miterlimit="10" stroke-width="2"/><circle cx="348.13" cy="30.63" r="6" transform="translate(240.21 363.01) rotate(-77.04)" fill="#85bb65"/><circle cx="337.15" cy="105.07" r="6" transform="translate(159.14 410.06) rotate(-77.04)" fill="#85bb65"/><circle cx="354.89" cy="68.1" r="12" transform="translate(208.93 398.68) rotate(-77.04)" fill="#85bb65"/><circle cx="374.43" cy="36.68" r="6" transform="translate(254.71 393.35) rotate(-77.04)" fill="#85bb65"/><path d="M310,13s4,49,4,66v33h53s-6-92-6-99Z" transform="translate(0)" fill="#aed696"/><rect x="320" y="21.03" width="39" height="88" transform="translate(-3 18.28) rotate(-3.07)" fill="none" stroke="#557841" stroke-miterlimit="10" stroke-width="2"/><circle cx="324" cy="28" r="6" fill="#85bb65"/><circle cx="330" cy="103" r="6" fill="#85bb65"/><circle cx="339" cy="63" r="12" fill="#85bb65"/><circle cx="351" cy="28" r="6" fill="#85bb65"/><path d="M302.5,38.5s4,49,4,66v33h53s-6-92-6-99Z" transform="translate(0)" fill="#aed696"/><rect x="312.5" y="46.53" width="39" height="88" transform="translate(-4.37 17.91) rotate(-3.07)" fill="none" stroke="#557841" stroke-miterlimit="10" stroke-width="2"/><circle cx="316.5" cy="53.5" r="6" fill="#85bb65"/><circle cx="322.5" cy="128.5" r="6" fill="#85bb65"/><circle cx="331.5" cy="88.5" r="12" fill="#85bb65"/><circle cx="343.5" cy="53.5" r="6" fill="#85bb65"/><path d="M382.5,130.5c-2,4-26,35-25,40,.13.65.5,2.66,1,5.68L357,171s18,115,3,141l-6.65,11.53C337.46,327.35,327,305.9,325,273s5.5-84.5,12.5-99.5c0,0-7-20-6-28s6-9,6-9l-10-6s-2-3,1-5c2.85-1.9,12.92,1.62,13.92,2-1-.53-12.06-5.92-14.92-5s-4-1,0-4,18-7,20-5,3,7,6,7-4-14-10-16-11-3-13-5-1-4,1-5,12,0,16,0,10,12,12,12,0-4-4-8-6-4-9-6-2-5,1-5,18,4,21,7S384.5,126.5,382.5,130.5Z" transform="translate(0)" fill="#b06c49"/><path d="M373.5,272.5c0,12-4,47-20,51h-.15L360,312c15-26-3-141-3-141l1.53,5.18C362.15,196.39,373.5,262.06,373.5,272.5Z" transform="translate(0)" fill="#7a4b33"/><path d="M342.5,128.5s4.21,2,5.61,6" transform="translate(0)" fill="#7a4b33"/><path d="M360.5,107.5s9,3,15,10" transform="translate(0)" fill="#7a4b33"/><polygon points="194 214 123 214 136 418 194 421 194 214" fill="#f49075"/><polygon points="167.76 185.95 177.5 214.5 193.5 214.5 193.33 188.33 167.76 185.95" fill="#9c5f41"/><path d="M192,39l-40.5-.5-9,74s6,87,51,84C193.5,170.5,192,39,192,39Z" transform="translate(0)" fill="#b06c49"/><path d="M264.38,71.5c-5,34-9.84,43.13-9.84,43.13s-1.16-20.13-5.16-32.13-18-24-18-30c-5.14.86-21,1.33-25.38,1.45l-1.09,0h-.08c-5.87-.1-32-.59-37.33-1.48,0,6-14,18-18,30s-7,30-7,30-3-7-8-41,14-54,23-62C165.77,2.15,199.77.29,205.25,0h.06l.69,0c4.42.3,27.27,2.21,35.38,9.42C250.38,17.5,269.38,37.5,264.38,71.5Z" transform="translate(0)" fill="#111"/><path d="M206,0V.08l-.69,0Z" transform="translate(0)" fill="#111"/><path d="M204.91,54,206,54v0Z" transform="translate(0)" fill="#111"/><path d="M188.5,77.5v9s-10-3-19,0c-2-8,0-5,0-5Z" transform="translate(0)" fill="#111"/><path d="M160.42,97a3.16,3.16,0,0,1-.35-2.3c1-3.44,9.46-5.06,20.32-2.41,5.79,1.41,9.55,4.34,10.07,7.26a.65.65,0,0,0,0-.13c.83-3.5-3.44-7.16-10.5-8.44-11-2-19.31.12-20.14,3.61A3.27,3.27,0,0,0,160.42,97Z" transform="translate(0)" fill="#111" opacity="0.56" style="isolation:isolate"/><path d="M160.42,97c1.91,3.28,8.12,7.14,13.66,8.45,6.9,1.63,15.39-2.44,16.38-5.9-.52-2.92-4.28-5.85-10.07-7.26-10.86-2.65-19.28-1-20.32,2.41A3.16,3.16,0,0,0,160.42,97Z" transform="translate(0)" fill="#dddbff"/><circle cx="178.5" cy="98.5" r="6.5" fill="#111"/><circle cx="183.5" cy="100.5" r="1.5" fill="#dddbff"/><path d="M191.5,122.5a12.64,12.64,0,0,0-2.79,3,11.16,11.16,0,0,0-1.6,3.64,5.46,5.46,0,0,0-.21,1.88,2.26,2.26,0,0,0,.8,1.5,6.46,6.46,0,0,0,3.8,1,5.38,5.38,0,0,1-4.26-.35,3,3,0,0,1-1.28-2,6.1,6.1,0,0,1,.18-2.26,9.56,9.56,0,0,1,2-3.87A8.5,8.5,0,0,1,191.5,122.5Z" transform="translate(0)" fill="#7a4b33"/><path d="M221.5,149.5s-5.4,26.5-23,26c-17.6.48-23-26-23-26Z" transform="translate(0)" fill="#dddbff"/><path d="M145,131.39s-8.54-6.89-11.54-10.89-7-11-6-16,2-8,6-6,9,16.13,9,16.13Z" transform="translate(0)" fill="#b06c49"/><path d="M167.5,185.5h-40l-101,105L80,326l17.5-51.5s-5,171,0,184c18,3,62,6,62,6s3-68,0-95-5-70,0-84,19-62,19-62Z" transform="translate(0)" fill="#42408f"/><polygon points="178.5 223.5 177.5 216.5 167.5 185.5 159.5 209.5 178.5 223.5" fill="#9a97f3"/><polygon points="152.5 231.5 159.5 209.5 167.5 185.5 156.5 190.5 145.5 214.5 152.5 231.5" fill="#635fd6"/><path d="M74.5,275.5s14,38,6,50-24,25-42,15-23-41-17-55,30-32,30-32Z" transform="translate(0)" fill="#9a97f3"/><path d="M44.55,5.88s9.31,43.85,13.75,58.7l8.62,28.83L20.63,107.26S1.83,25.33,0,19.26Z" transform="translate(0)" fill="#aed696"/><rect x="14.58" y="18.89" width="35.56" height="80.23" transform="translate(-12.95 9.25) rotate(-13.58)" fill="none" stroke="#557841" stroke-miterlimit="10" stroke-width="2"/><circle cx="36.25" cy="22.66" r="5.47" transform="translate(-4.97 11.34) rotate(-16.65)" fill="#85bb65"/><circle cx="50.6" cy="89.75" r="5.47" transform="translate(-23.59 18.26) rotate(-16.65)" fill="#85bb65"/><circle cx="32.28" cy="57.15" r="10.94" transform="translate(-15.02 11.65) rotate(-16.65)" fill="#85bb65"/><circle cx="12.66" cy="29.72" r="5.47" transform="translate(-7.98 4.87) rotate(-16.65)" fill="#85bb65"/><path d="M59.17,12.87s7.09,48.65,10.9,65.22l7.4,32.16L25.82,122.14S11,31.14,9.47,24.32Z" transform="translate(0)" fill="#aed696"/><rect x="22.58" y="26.2" width="39" height="88" transform="translate(-11.43 8.27) rotate(-9.89)" fill="none" stroke="#557841" stroke-miterlimit="10" stroke-width="2"/><circle cx="48.89" cy="30.62" r="6" transform="translate(-5.62 11.74) rotate(-12.96)" fill="#85bb65"/><circle cx="59.87" cy="105.04" r="6" transform="translate(-22.03 16.1) rotate(-12.96)" fill="#85bb65"/><circle cx="42.12" cy="68.09" r="12" transform="translate(-14.2 11.18) rotate(-12.96)" fill="#85bb65"/><circle cx="22.58" cy="36.67" r="6" transform="translate(-7.65 6) rotate(-12.96)" fill="#85bb65"/><path d="M87,13s-4,49-4,66v33H30s6-92,6-99Z" transform="translate(0)" fill="#aed696"/><rect x="13.49" y="45.52" width="88" height="39" transform="translate(-10.51 118.95) rotate(-86.93)" fill="none" stroke="#557841" stroke-miterlimit="10" stroke-width="2"/><circle cx="73" cy="28" r="6" fill="#85bb65"/><circle cx="67" cy="103" r="6" fill="#85bb65"/><circle cx="58" cy="63" r="12" fill="#85bb65"/><circle cx="46" cy="28" r="6" fill="#85bb65"/><path d="M94.5,38.5s-4,49-4,66v33h-53s6-92,6-99Z" transform="translate(0)" fill="#aed696"/><rect x="20.99" y="71.02" width="88" height="39" transform="translate(-28.88 150.57) rotate(-86.93)" fill="none" stroke="#557841" stroke-miterlimit="10" stroke-width="2"/><circle cx="80.5" cy="53.5" r="6" fill="#85bb65"/><circle cx="74.5" cy="128.5" r="6" fill="#85bb65"/><circle cx="65.5" cy="88.5" r="12" fill="#85bb65"/><circle cx="53.5" cy="53.5" r="6" fill="#85bb65"/><path d="M14.5,130.5c2,4,26,35,25,40-.13.65-.5,2.66-1,5.68L40,171S22,286,37,312l6.65,11.53C59.54,327.35,70,305.9,72,273s-5.5-84.5-12.5-99.5c0,0,7-20,6-28s-6-9-6-9l10-6s2-3-1-5c-2.85-1.9-12.92,1.62-13.92,2,1-.53,12.06-5.92,14.92-5s4-1,0-4-18-7-20-5-3,7-6,7,4-14,10-16,11-3,13-5,1-4-1-5-12,0-16,0-10,12-12,12,0-4,4-8,6-4,9-6,2-5-1-5-18,4-21,7S12.5,126.5,14.5,130.5Z" transform="translate(0)" fill="#b06c49"/><path d="M23.5,272.5c0,12,4,47,20,51h.15L37,312c-15-26,3-141,3-141l-1.53,5.18C34.85,196.39,23.5,262.06,23.5,272.5Z" transform="translate(0)" fill="#7a4b33"/><path d="M54.5,128.5s-4.21,2-5.61,6" transform="translate(0)" fill="#7a4b33"/><path d="M36.5,107.5s-9,3-15,10" transform="translate(0)" fill="#7a4b33"/></svg>