<svg xmlns="http://www.w3.org/2000/svg" width="1366" height="768" viewBox="0 0 1366 768"><title>cash1</title><path d="M418.55,579.35l-95.1-.48-20.58-.11-21.07-76.89a7,7,0,0,1,6.75-8.84H405Z" fill="#49479e"/><path d="M556.54,199.44S546,309.83,543.62,349.76c-2,34.62-42.91,60.41-53.75,66.66l.32.87,12.92,152.08H390.37l-20-132.12,1-15.21-1.33,14.84s-59.53-13-72.25-51S246,244.23,246,244.23l32.87-8.93L319.22,357s10.42,38.36,53.62,46.15L388,397.32l64.59,76.33,3.52-88.08h20.59c38.72-19,38.72-58.13,38.72-58.13l7-128Z" fill="#2e6b8e"/><path d="M526.16,183s-1.3-14.91-2.21-17.38-9.73-18.8-7.92-24.51,9.73-7.3,12.19-14c4.52-12.36,43.86.29,32.94,11.92,0,0,2.08,13.23-2.59,23.34S556,185.75,556,185.75Z" fill="#b06c49"/><path d="M531.46,129.86c4.15,5.19-8.3,10.9-8.3,10.9s13.62,5.05,12.45,15.56" fill="#b06c49" stroke="#4a2d1f" stroke-miterlimit="10"/><polygon points="535.52 146.98 562.48 146.29 561.16 139.06 533.56 136.59 526.66 141.14 535.52 146.98" fill="#875238"/><path d="M271,218.92s-2.53-14.75-2.28-17.37,4.63-20.66,1.43-25.72-11.27-4.59-15.35-10.45c-7.51-10.81-42.35,11.43-28.83,19.9,0,0,1.35,13.32,8.44,21.92s8.44,21.92,8.44,21.92Z" fill="#b06c49"/><path d="M252.37,168.84c-2.7,6.07,10.79,8.43,10.79,8.43s-11.89,8.35-8.09,18.21" fill="#b06c49" stroke="#4a2d1f" stroke-miterlimit="10"/><polygon points="252.8 186.44 226.55 192.62 225.99 185.29 252.05 175.89 259.88 178.54 252.8 186.44" fill="#875238"/><rect x="523.07" y="178.89" width="34.06" height="21.14" fill="#45a4ce"/><rect x="242.66" y="219" width="34.06" height="21.14" transform="translate(-51.07 76.04) rotate(-15.19)" fill="#45a4ce"/><polygon points="405.63 417.29 426.77 386.75 456.13 403.19 452.61 473.66 405.63 417.29" fill="#1b97ce"/><polygon points="388.02 397.32 403.28 379.71 426.77 386.75 405.41 417.87 388.02 397.32" fill="#45a4ce"/><polygon points="436.17 375.01 456.13 385.58 455.43 403.24 426.77 386.75 436.17 375.01" fill="#45a4ce"/><polygon points="418.51 398.79 431.47 418.46 442.04 412.59 445.14 397.32 426.77 386.75 418.51 398.79" fill="#f46e4a"/><polygon points="431.47 418.46 428.95 445.7 452.61 473.66 454.11 436.08 442.04 412.59 431.47 418.46" fill="#f48466"/><polygon points="355.13 277.54 385.39 349.17 456.13 325.1 431.47 250.52 355.13 277.54" fill="#b06c49"/><polygon points="397.41 359.74 403.28 379.71 426.77 386.75 436.17 375.01 433.82 356.22 397.41 359.74" fill="#804f35"/><path d="M374.51,325.1s9.4,31.71,20.55,35.82c7,2.57,25.84,11.74,47-3.52s14.09-42.28,14.09-42.28l-8.81-18.2,6.46,21.73s-3.52,10.57-5.87,9.4c-1.76-.88-4.84-8.37-6.28-12.06a3,3,0,0,0-3-1.92c-8.13.49-35.69,3-37.69,14,3.52,7,0,8.22,0,8.22Z" fill="#111"/><path d="M370.4,313.69l-20-9.14s-30.53-56.37,15.27-75.16,51.67-18.79,71.64,15.27c3.52,10.57,7.8,44,7.8,44l-13.68-38.17-76.33,27Z" fill="#111"/><path d="M370.2,313.74s-9.55-8-16.57-6.73-12.69,12-4.25,23.57S366,342,369.55,340.76s4.38-16.53,4.38-16.53Z" fill="#b06c49"/><path d="M365.07,317.69s-4.57-2.84-8.14-2.71-6.75,3.19-2.84,7.08,8.05,4.16,9.85,3.91,2.7-4.91,2.7-4.91Z" fill="#70452f"/><path d="M350.44,304.55l27,3.52,5.6,11.19a4.25,4.25,0,0,0,4.63,2.26l9.65-1.93a7.4,7.4,0,0,0,5.79-5.73l3.69-17.54L415,292.8s9.4,16.44,11.74,14.09c1.6-1.6,8.09-4.28,12.07-5.84a7.51,7.51,0,0,0,4.36-4.49c2.05-5.77,1.49-13.77,2.36-15.52" fill="none" stroke="#000" stroke-linecap="round" stroke-miterlimit="10" stroke-width="3"/><line x1="377.45" y1="308.07" x2="445.56" y2="281.06" fill="none" stroke="#000" stroke-linecap="round" stroke-miterlimit="10" stroke-width="3"/><polygon points="377.45 304.55 392.71 289.28 392.71 292.8 381.29 306.48 377.45 304.55" fill="#111"/><polygon points="418.55 281.06 418.55 284.58 438.63 282.82 438.51 277.54 418.55 281.06" fill="#111"/><path d="M408,331.56l30.53-9.4s0,20-7,23.49S403.28,336.25,408,331.56Z" fill="#e9e8ff"/><path d="M388,311.59a10.3,10.3,0,0,1,10.57-5.87" fill="none" stroke="#000" stroke-linecap="round" stroke-miterlimit="10" stroke-width="2"/><path d="M426.77,297.5a10.3,10.3,0,0,1,10.57-5.87" fill="none" stroke="#000" stroke-linecap="round" stroke-miterlimit="10" stroke-width="2"/><rect x="371.81" y="310.07" width="1.33" height="18.79" transform="translate(-98.22 180.75) rotate(-24.2)" fill="#111"/><path d="M323.45,578.87l-20.58-.11-21.07-76.89a7,7,0,0,1,6.75-8.84h7.14Z" fill="#5d5ac9"/><path d="M951.39,300.72,911.68,509.16a6.9,6.9,0,0,1-6.78,5.6H675.76a6.91,6.91,0,0,1-6.8-8.11l38.61-216.18a6.89,6.89,0,0,1,7-5.68l22.24.75,208,7A6.9,6.9,0,0,1,951.39,300.72Z" fill="#c5c3f8"/><rect x="292.31" y="588.08" width="741.03" height="33.03" fill="#5f5bcc"/><rect x="267.64" y="569.37" width="790.36" height="35.23" rx="15" ry="15" fill="#6e6aee"/><polygon points="792 412.59 792 514.76 855.42 514.76 842.5 412.59 792 412.59" fill="#514fad"/><path d="M763.82,570H880.08s21.14-7,15.27-30.53-31.71-135.05-31.71-135.05H816.08L834.28,530l-4.7,24.66-25.84,9.4Z" fill="#9694bd"/><path d="M792,404.37v8.22h17.62s18.79,111.57,17.62,122.14-7,25.84-35.23,23.49-28.19,0-28.19,0V570H812s29.36-1.17,30.53-20-15.27-145.62-15.27-145.62Z" fill="#dddbff"/><rect x="762.3" y="326.75" width="3.86" height="28.62" rx="1.64" ry="1.64" transform="translate(71.22 -128.1) rotate(10.05)" fill="#42408f"/><rect x="774.63" y="327.06" width="3.86" height="28.62" rx="1.64" ry="1.64" transform="translate(71.46 -130.24) rotate(10.05)" fill="#42408f"/><rect x="786.96" y="327.37" width="3.86" height="28.62" rx="1.64" ry="1.64" transform="translate(71.71 -132.39) rotate(10.05)" fill="#42408f"/><rect x="799.29" y="327.67" width="3.86" height="28.62" rx="1.64" ry="1.64" transform="translate(71.95 -134.54) rotate(10.05)" fill="#42408f"/><rect x="811.62" y="327.98" width="3.86" height="28.62" rx="1.64" ry="1.64" transform="translate(72.19 -136.68) rotate(10.05)" fill="#42408f"/><rect x="823.95" y="328.29" width="3.86" height="28.62" rx="1.64" ry="1.64" transform="translate(72.43 -138.83) rotate(10.05)" fill="#42408f"/><rect x="836.28" y="328.6" width="3.86" height="28.62" rx="1.64" ry="1.64" transform="translate(72.68 -140.98) rotate(10.05)" fill="#42408f"/><rect x="848.61" y="328.91" width="3.86" height="28.62" rx="1.64" ry="1.64" transform="translate(72.92 -143.12) rotate(10.05)" fill="#42408f"/><rect x="860.94" y="329.21" width="3.86" height="28.62" rx="1.64" ry="1.64" transform="translate(73.16 -145.27) rotate(10.05)" fill="#42408f"/><rect x="873.28" y="329.52" width="3.86" height="28.62" rx="1.64" ry="1.64" transform="matrix(0.98, 0.17, -0.17, 0.98, 73.41, -147.42)" fill="#42408f"/><polygon points="695.73 356.81 646.38 356.81 646.38 393.8 688.05 393.8 695.73 356.81" fill="#45a4ce"/><rect x="628.76" y="356.81" width="17.62" height="36.41" fill="#2e6b8e"/><path d="M628.76,356.22s-10.57,1.17-14.09,0-8.22-3.52-14.09-3.52-15.27,1.17-16.44,3.52-4.7,10.57-7,10.57-4.7,29.36,0,32.88,23.49,1.17,32.88,0,4.7-7,8.22-7h10.57Z" fill="#b06c49"/><path d="M645.21,486.57H546.56s3.52-34.06,14.09-57.54,30.53-29.36,30.53-29.36V369.14l4.7-4.7,4.7,4.7v30.53s20,5.87,30.53,29.36S645.21,486.57,645.21,486.57Z" fill="#6e6aee"/><polygon points="584.14 356.22 578.27 335.08 617.02 335.08 611.15 356.22 584.14 356.22" fill="#6e6aee"/><line x1="585.31" y1="432.55" x2="585.31" y2="466.61" fill="none" stroke="#c5c3f8" stroke-linecap="round" stroke-miterlimit="10" stroke-width="5"/><line x1="585.31" y1="432.55" x2="607.63" y2="466.61" fill="none" stroke="#c5c3f8" stroke-linecap="round" stroke-miterlimit="10" stroke-width="5"/><line x1="607.63" y1="466.61" x2="607.63" y2="432.55" fill="none" stroke="#c5c3f8" stroke-linecap="round" stroke-miterlimit="10" stroke-width="5"/><line x1="578.27" y1="444.3" x2="614.67" y2="444.3" fill="none" stroke="#c5c3f8" stroke-linecap="round" stroke-miterlimit="10" stroke-width="5"/><line x1="578.85" y1="453.69" x2="615.26" y2="453.69" fill="none" stroke="#c5c3f8" stroke-linecap="round" stroke-miterlimit="10" stroke-width="5"/><path d="M736.84,285.53,700.65,514.76H675.76a6.91,6.91,0,0,1-6.8-8.11l38.61-216.18a6.89,6.89,0,0,1,7-5.68Z" fill="#dddbff"/><path d="M578.27,366.79s3.52,3.52,7,3.52,11.74-7,11.74-7,5.87,9.4,12.92,11.74" fill="none" stroke="#000" stroke-miterlimit="10"/></svg>