<svg xmlns="http://www.w3.org/2000/svg" xmlns:xlink="http://www.w3.org/1999/xlink" width="740.66" height="737.91" viewBox="0 0 740.66 737.91"><defs><linearGradient id="a" x1="475.7" y1="669.18" x2="546.13" y2="669.18" gradientUnits="userSpaceOnUse"><stop offset="0.4" stop-color="#6e6aee" stop-opacity="0.9"/><stop offset="0.76" stop-color="#fff" stop-opacity="0.1"/></linearGradient><linearGradient id="b" x1="692.7" y1="744.18" x2="763.13" y2="744.18" xlink:href="#a"/><linearGradient id="c" x1="400.9" y1="645" x2="646.93" y2="502.95" xlink:href="#a"/></defs><title>cash</title><path d="M475.7,676.24s48-23,57-22.08,13.44,10.95,13.44,10.95-57.53,22.2-61.23,18.79,24.87-7.48,26.17-10.36-2.47-5.28-8.75-2.92l-25.11,9.46-1.52-3.83" transform="translate(-237.08 -21.33)" opacity="0.61" fill="url(#a)"/><path d="M692.7,751.24s48-23,57-22.08,13.44,10.95,13.44,10.95-57.53,22.2-61.23,18.79,24.87-7.48,26.17-10.36-2.47-5.28-8.75-2.92l-25.11,9.46-1.52-3.83" transform="translate(-237.08 -21.33)" opacity="0.61" fill="url(#b)"/><path d="M450.61,469.91c0,33.28-20.23,48.57-45.19,34.16S360.23,451,360.23,417.73s20.23-48.57,45.19-34.16S450.61,436.64,450.61,469.91Z" transform="translate(-237.08 -21.33)" fill="#dddbff"/><polygon points="168.81 441.67 166.02 440.06 166.02 407.2 168.81 408.81 168.81 441.67" fill="#f49075"/><polygon points="168.81 409.74 166.02 408.13 166.02 404.41 168.81 406.02 168.81 409.74" fill="#9c5f41"/><polygon points="169.51 407.35 166.02 405.34 166.02 381.47 169.51 383.48 169.51 407.35" fill="#b06c49"/><polygon points="167.42 438.85 175.21 442.41 175.67 449.89 175.21 473.57 169.51 470.28 169.16 452.56 167.42 451.56 167.42 438.85" fill="#2e6b8e"/><polygon points="168 409.11 176.25 413.88 174.74 444.63 168 441.2 168 409.11" fill="#f49075"/><polygon points="171.05 406.53 169.92 410.3 168.06 409.22 168.07 405.18 171.05 406.53" fill="#9c5f41"/><path d="M405.31,403.46,410,406.1l1,12.07s-.7,13.08-5.93,9.6C405.13,423.74,405.31,403.46,405.31,403.46Z" transform="translate(-237.08 -21.33)" fill="#b06c49"/><path d="M405.42,397.48a14.71,14.71,0,0,1,3.89,3.72c1,1.84,3.25,6.22,2.67,11.15a34,34,0,0,1-.93,5.82s-.35-3-.81-5.12-2.09-4.93-2.09-5.86a31.07,31.07,0,0,1-2.79-1.46Z" transform="translate(-237.08 -21.33)" fill="#111"/><path d="M405.71,409.66v1.39a4.53,4.53,0,0,1,2.21,1.28c.23-1.11,0-.77,0-.77Z" transform="translate(-237.08 -21.33)" fill="#111"/><path d="M409,414.57a.52.52,0,0,0,0-.33,3.23,3.23,0,0,0-2.36-1.74c-.67-.17-1.11,0-1.17.45v0c-.1-.6.4-.88,1.22-.6a3.51,3.51,0,0,1,2.34,1.91A.48.48,0,0,1,409,414.57Z" transform="translate(-237.08 -21.33)" fill="#111" opacity="0.56"/><path d="M409,414.57a1.51,1.51,0,0,1-1.59.39,3.47,3.47,0,0,1-1.9-2c.06-.42.5-.62,1.17-.45a3.23,3.23,0,0,1,2.36,1.74A.52.52,0,0,1,409,414.57Z" transform="translate(-237.08 -21.33)" fill="#dddbff"/><path d="M407.63,414c0,.56-.34.81-.76.57a1.81,1.81,0,0,1-.76-1.44c0-.56.34-.81.76-.57A1.81,1.81,0,0,1,407.63,414Z" transform="translate(-237.08 -21.33)" fill="#111"/><path d="M406.47,413.66c0,.13-.08.19-.17.13a.42.42,0,0,1-.17-.33c0-.13.08-.19.17-.13A.42.42,0,0,1,406.47,413.66Z" transform="translate(-237.08 -21.33)" fill="#dddbff"/><path d="M405.37,416.43a1.34,1.34,0,0,1,1,1,1.22,1.22,0,0,1-.12.92.52.52,0,0,1-.41.24.47.47,0,0,1-.29-.11.64.64,0,0,1-.2-.39,1.42,1.42,0,0,0,.36-.07s.07,0,0-.07-.14,0-.17,0-.11-.18-.16-.34A3.57,3.57,0,0,1,405.37,416.43Z" transform="translate(-237.08 -21.33)" fill="#7a4b33"/><path d="M410.77,420.93a5.54,5.54,0,0,0,1.34-.91,2.87,2.87,0,0,0,.7-2.08c-.12-.84-.23-1.37-.7-1.33s-1,1.9-1,1.9Z" transform="translate(-237.08 -21.33)" fill="#b06c49"/><path d="M408.16,427.81l4.65,2.68,11.74,23.05-6.22,1.91-2-9.16s.58,26.84,0,28.52c-2.09-.74-7.21-3.23-7.21-3.23s-.35-10.74,0-14.72.58-10.51,0-13S406.88,433,406.88,433Z" transform="translate(-237.08 -21.33)" fill="#42408f"/><polygon points="169.8 411.63 169.92 410.61 171.08 406.47 172.01 410.73 169.8 411.63" fill="#9a97f3"/><polygon points="172.82 414.61 172.01 410.73 171.08 406.47 172.36 407.99 173.64 412.44 172.82 414.61" fill="#635fd6"/><path d="M419,448s-1.63,5-.7,7.35,2.79,5.49,4.88,5.14,2.67-4.81,2-7.38-3.49-7-3.49-7Z" transform="translate(-237.08 -21.33)" fill="#9a97f3"/><path d="M422.45,408.22s-1.08,6.17-1.6,8.17l-1,3.89,5.38,5.25s2.19-11.44,2.4-12.26Z" transform="translate(-237.08 -21.33)" fill="#aed696"/><polygon points="187.7 403.16 183.68 399.54 185.87 388.72 189.89 392.33 187.7 403.16" fill="none" stroke="#557841" stroke-miterlimit="10" stroke-width="2"/><path d="M424,412c-.1.39-.46.44-.79.11a1.52,1.52,0,0,1-.43-1.3c.1-.39.46-.44.79-.11A1.52,1.52,0,0,1,424,412Z" transform="translate(-237.08 -21.33)" fill="#85bb65"/><path d="M422.35,421.4c-.1.39-.46.44-.79.11a1.52,1.52,0,0,1-.43-1.3c.1-.39.46-.44.79-.11A1.52,1.52,0,0,1,422.35,421.4Z" transform="translate(-237.08 -21.33)" fill="#85bb65"/><path d="M425.09,418.18c-.2.78-.91.88-1.58.22a3,3,0,0,1-.85-2.6c.2-.78.91-.88,1.58-.22A3,3,0,0,1,425.09,418.18Z" transform="translate(-237.08 -21.33)" fill="#85bb65"/><path d="M426.77,414.65c-.1.39-.46.44-.79.11a1.52,1.52,0,0,1-.43-1.3c.1-.39.46-.44.79-.11A1.52,1.52,0,0,1,426.77,414.65Z" transform="translate(-237.08 -21.33)" fill="#85bb65"/><path d="M420.75,408.32s-.82,7.06-1.27,9.38l-.86,4.49,6,5.31s1.72-13.11,1.9-14.07Z" transform="translate(-237.08 -21.33)" fill="#aed696"/><polygon points="187.01 405.03 182.55 401.42 184.3 388.99 188.77 392.61 187.01 405.03" fill="none" stroke="#557841" stroke-miterlimit="10" stroke-width="2"/><path d="M422.62,412.36c-.09.45-.46.55-.84.22a1.69,1.69,0,0,1-.52-1.42c.09-.45.46-.55.84-.22A1.69,1.69,0,0,1,422.62,412.36Z" transform="translate(-237.08 -21.33)" fill="#85bb65"/><path d="M421.35,423.17c-.09.45-.46.55-.84.22A1.69,1.69,0,0,1,420,422c.09-.45.46-.55.84-.22A1.69,1.69,0,0,1,421.35,423.17Z" transform="translate(-237.08 -21.33)" fill="#85bb65"/><path d="M424.09,419.23c-.17.9-.92,1.09-1.67.43a3.38,3.38,0,0,1-1-2.83c.17-.9.92-1.09,1.67-.43A3.38,3.38,0,0,1,424.09,419.23Z" transform="translate(-237.08 -21.33)" fill="#85bb65"/><path d="M425.68,415.07c-.09.45-.46.55-.84.22a1.69,1.69,0,0,1-.52-1.42c.09-.45.46-.55.84-.22A1.69,1.69,0,0,1,425.68,415.07Z" transform="translate(-237.08 -21.33)" fill="#85bb65"/><path d="M417.51,406.47s.46,7.86.46,10.5v5.11l6.16,3.56s-.7-14.66-.7-15.75Z" transform="translate(-237.08 -21.33)" fill="#aed696"/><polygon points="186.4 403.29 181.88 401 181.33 387.07 185.85 389.36 186.4 403.29" fill="none" stroke="#557841" stroke-miterlimit="10" stroke-width="2"/><path d="M419.84,410.14c0,.51-.31.75-.7.53a1.67,1.67,0,0,1-.7-1.33c0-.51.31-.75.7-.53A1.67,1.67,0,0,1,419.84,410.14Z" transform="translate(-237.08 -21.33)" fill="#85bb65"/><path d="M420.54,422.17c0,.51-.31.75-.7.53a1.67,1.67,0,0,1-.7-1.33c0-.51.31-.75.7-.53A1.67,1.67,0,0,1,420.54,422.17Z" transform="translate(-237.08 -21.33)" fill="#85bb65"/><path d="M422.28,417c0,1-.62,1.5-1.39,1.05a3.34,3.34,0,0,1-1.39-2.67c0-1,.62-1.5,1.39-1.05A3.34,3.34,0,0,1,422.28,417Z" transform="translate(-237.08 -21.33)" fill="#85bb65"/><path d="M423,412c0,.51-.31.75-.7.53a1.67,1.67,0,0,1-.7-1.33c0-.51.31-.75.7-.53A1.67,1.67,0,0,1,423,412Z" transform="translate(-237.08 -21.33)" fill="#85bb65"/><path d="M416.64,409.92s.46,7.86.46,10.5v5.11l6.16,3.56s-.7-14.66-.7-15.75Z" transform="translate(-237.08 -21.33)" fill="#aed696"/><polygon points="185.53 406.74 181 404.45 180.46 390.51 184.98 392.81 185.53 406.74" fill="none" stroke="#557841" stroke-miterlimit="10" stroke-width="2"/><path d="M419,413.59c0,.51-.31.75-.7.53a1.67,1.67,0,0,1-.7-1.33c0-.51.31-.75.7-.53A1.67,1.67,0,0,1,419,413.59Z" transform="translate(-237.08 -21.33)" fill="#85bb65"/><path d="M419.66,425.62c0,.51-.31.75-.7.53a1.67,1.67,0,0,1-.7-1.33c0-.51.31-.75.7-.53A1.67,1.67,0,0,1,419.66,425.62Z" transform="translate(-237.08 -21.33)" fill="#85bb65"/><path d="M421.41,420.42c0,1-.62,1.5-1.39,1.05a3.34,3.34,0,0,1-1.39-2.67c0-1,.62-1.5,1.39-1.05A3.34,3.34,0,0,1,421.41,420.42Z" transform="translate(-237.08 -21.33)" fill="#85bb65"/><path d="M422.11,415.4c0,.51-.31.75-.7.53a1.67,1.67,0,0,1-.7-1.33c0-.51.31-.75.7-.53A1.67,1.67,0,0,1,422.11,415.4Z" transform="translate(-237.08 -21.33)" fill="#85bb65"/><path d="M425.94,429.55c-.23.49-3,3.68-2.91,4.52,0,.11.06.45.12.95l-.18-.91s2.09,19,.35,22.06l-.77,1.34c-1.85-.47-3.06-4.5-3.3-9.73s.64-12.73,1.45-14.58a26,26,0,0,1-.7-4.74c.12-1.17.7-1,.7-1l-1.16-1.6s-.23-.6.12-.71,1.5,1.12,1.62,1.24c-.12-.15-1.4-1.73-1.73-1.77s-.46-.42,0-.62a2.94,2.94,0,0,1,2.32.57c.23.44.35,1.29.7,1.49s-.46-2.44-1.16-3.15a10.06,10.06,0,0,1-1.51-1.65c-.23-.44-.12-.69.12-.71a11.31,11.31,0,0,1,1.86,1.07c.46.27,1.16,2.53,1.39,2.67s0-.62-.46-1.51a9.66,9.66,0,0,0-1-1.53c-.35-.51-.23-.91.12-.71a12.48,12.48,0,0,1,2.44,2.49C424.66,423.7,426.17,429.07,425.94,429.55Z" transform="translate(-237.08 -21.33)" fill="#b06c49"/><path d="M424.9,451c0,1.86-.46,7-2.32,6.56h0l.77-1.34c1.74-3-.35-22.06-.35-22.06l.18.91C423.58,438.4,424.9,449.34,424.9,451Z" transform="translate(-237.08 -21.33)" fill="#7a4b33"/><path d="M421.29,426.56a3.59,3.59,0,0,1,.65,1.31" transform="translate(-237.08 -21.33)" fill="#7a4b33"/><path d="M423.38,424.51a10.37,10.37,0,0,1,1.74,2.56" transform="translate(-237.08 -21.33)" fill="#7a4b33"/><polygon points="167.42 438.85 159.63 433.42 159.16 440.36 159.63 464.57 165.32 467.86 165.67 450.55 167.42 451.56 167.42 438.85" fill="#2e6b8e"/><polygon points="166.95 408.51 158.7 403.74 160.21 436.24 166.95 440.59 166.95 408.51" fill="#f49075"/><polygon points="163.9 402.4 165.03 407.48 166.89 408.55 166.87 404.49 163.9 402.4" fill="#9c5f41"/><path d="M403.8,402.58l-4.71-2.8-1,10.87s.7,13.89,5.93,16.44C404,423.07,403.8,402.58,403.8,402.58Z" transform="translate(-237.08 -21.33)" fill="#b06c49"/><path d="M405.42,397.48s-4.59-2.42-5.64-1.78-3.25,2.46-2.67,8.07a58.66,58.66,0,0,0,.93,6.89,36.37,36.37,0,0,1,.81-4.18c.46-1.59,2.09-2.51,2.09-3.44.7.56,4.48,2.82,4.48,2.82Z" transform="translate(-237.08 -21.33)" fill="#111"/><path d="M403.39,408.32v1.39a5,5,0,0,0-2.21-1.28c-.23-1.37,0-.77,0-.77Z" transform="translate(-237.08 -21.33)" fill="#111"/><path d="M400.12,409.46a.75.75,0,0,1,0-.38c.12-.46,1.1-.15,2.36,1a3.44,3.44,0,0,1,1.17,1.8v0c.1-.49-.4-1.34-1.22-2-1.28-1-2.24-1.28-2.34-.79A.84.84,0,0,0,400.12,409.46Z" transform="translate(-237.08 -21.33)" fill="#111" opacity="0.56"/><path d="M400.12,409.46a6.62,6.62,0,0,0,1.59,2.23c.8.72,1.79.65,1.9.18a3.44,3.44,0,0,0-1.17-1.8c-1.26-1.14-2.24-1.45-2.36-1A.75.75,0,0,0,400.12,409.46Z" transform="translate(-237.08 -21.33)" fill="#dddbff"/><path d="M401.47,410.46a1.81,1.81,0,0,0,.76,1.44c.42.24.76,0,.76-.57a1.81,1.81,0,0,0-.76-1.44C401.81,409.65,401.47,409.91,401.47,410.46Z" transform="translate(-237.08 -21.33)" fill="#111"/><path d="M402.63,411.45a.42.42,0,0,0,.17.33c.1.06.17,0,.17-.13a.42.42,0,0,0-.17-.33C402.71,411.26,402.63,411.32,402.63,411.45Z" transform="translate(-237.08 -21.33)" fill="#dddbff"/><path d="M403.74,415.49a.8.8,0,0,0-.1.52,2.73,2.73,0,0,1,0,.36c0,.09,0,.13,0,.26a2,2,0,0,0,.13.56.7.7,0,0,1-.75-.1.94.94,0,0,1-.34-.79,1.09,1.09,0,0,1,.32-.7A.6.6,0,0,1,403.74,415.49Z" transform="translate(-237.08 -21.33)" fill="#7a4b33"/><path d="M407.23,421.69s-.63,3.75-2.67,2.49-2.67-5.58-2.67-5.58Z" transform="translate(-237.08 -21.33)" fill="#dddbff"/><path d="M398.34,413.75s-1-1.64-1.34-2.46a7,7,0,0,1-.7-2.88c.12-.71.23-1.11.7-.53a13.67,13.67,0,0,1,1,3.1Z" transform="translate(-237.08 -21.33)" fill="#b06c49"/><path d="M400.95,423.65,396.3,421l-11.74,9.5,6.22,9.09,2-6.81s-.58,26.17,0,28.52c2.09,1.67,7.21,5.09,7.21,5.09s.35-10.34,0-14.72-.58-11.19,0-13,2.21-8.33,2.21-8.33Z" transform="translate(-237.08 -21.33)" fill="#42408f"/><polygon points="165.15 408.94 165.03 407.79 163.87 402.31 162.94 405.5 165.15 408.94" fill="#9a97f3"/><polygon points="162.13 408.44 162.94 405.5 163.87 402.31 162.59 402.35 161.31 405.33 162.13 408.44" fill="#635fd6"/><path d="M390.14,431.35s1.63,6.83.7,8.15S388,441.77,386,439s-2.67-7.9-2-9.67,3.49-2.95,3.49-2.95Z" transform="translate(-237.08 -21.33)" fill="#9a97f3"/><path d="M386.65,387.55s1.08,7.42,1.6,10l1,5-5.38-1s-2.19-14-2.4-15Z" transform="translate(-237.08 -21.33)" fill="#aed696"/><polygon points="147.25 379.8 151.26 380.83 149.07 367.47 145.06 366.45 147.25 379.8" fill="none" stroke="#557841" stroke-miterlimit="10" stroke-width="2"/><path d="M385.08,389.48a1.29,1.29,0,0,0,.79,1c.34.06.53-.3.43-.81a1.29,1.29,0,0,0-.79-1C385.17,388.62,385,389,385.08,389.48Z" transform="translate(-237.08 -21.33)" fill="#85bb65"/><path d="M386.75,400.85a1.29,1.29,0,0,0,.79,1c.34.06.53-.3.43-.81a1.29,1.29,0,0,0-.79-1C386.84,400,386.65,400.34,386.75,400.85Z" transform="translate(-237.08 -21.33)" fill="#85bb65"/><path d="M384,394.46a2.58,2.58,0,0,0,1.58,2.05c.67.12,1.06-.6.85-1.62a2.58,2.58,0,0,0-1.58-2.05C384.19,392.72,383.81,393.44,384,394.46Z" transform="translate(-237.08 -21.33)" fill="#85bb65"/><path d="M382.34,389a1.29,1.29,0,0,0,.79,1c.34.06.53-.3.43-.81a1.29,1.29,0,0,0-.79-1C382.43,388.13,382.24,388.49,382.34,389Z" transform="translate(-237.08 -21.33)" fill="#85bb65"/><path d="M388.35,389.62s.82,8,1.27,10.84l.86,5.48-6-1.62s-1.72-15.1-1.9-16.26Z" transform="translate(-237.08 -21.33)" fill="#aed696"/><polygon points="147.94 382.47 152.4 384.01 150.65 369.56 146.18 368.02 147.94 382.47" fill="none" stroke="#557841" stroke-miterlimit="10" stroke-width="2"/><path d="M386.48,391.5a1.49,1.49,0,0,0,.84,1.18c.38.1.61-.26.52-.81a1.49,1.49,0,0,0-.84-1.18C386.63,390.58,386.39,390.95,386.48,391.5Z" transform="translate(-237.08 -21.33)" fill="#85bb65"/><path d="M387.76,403.77a1.49,1.49,0,0,0,.84,1.18c.38.1.61-.26.52-.81a1.49,1.49,0,0,0-.84-1.18C387.9,402.86,387.67,403.22,387.76,403.77Z" transform="translate(-237.08 -21.33)" fill="#85bb65"/><path d="M385,396.67a3,3,0,0,0,1.67,2.36c.75.2,1.22-.52,1-1.63a3,3,0,0,0-1.67-2.36C385.31,394.84,384.84,395.57,385,396.67Z" transform="translate(-237.08 -21.33)" fill="#85bb65"/><path d="M383.42,390.67a1.49,1.49,0,0,0,.84,1.18c.38.1.61-.26.52-.81a1.49,1.49,0,0,0-.84-1.18C383.57,389.76,383.33,390.12,383.42,390.67Z" transform="translate(-237.08 -21.33)" fill="#85bb65"/><path d="M391.59,391.51s-.46,7.33-.46,10v5.11L385,403s.7-13.86.7-14.94Z" transform="translate(-237.08 -21.33)" fill="#aed696"/><polygon points="148.54 381.44 153.07 384.37 153.62 371.07 149.09 368.13 148.54 381.44" fill="none" stroke="#557841" stroke-miterlimit="10" stroke-width="2"/><path d="M389.26,392.49a1.67,1.67,0,0,0,.7,1.33c.39.22.7,0,.7-.53A1.67,1.67,0,0,0,390,392C389.58,391.74,389.26,392,389.26,392.49Z" transform="translate(-237.08 -21.33)" fill="#85bb65"/><path d="M388.57,403.71a1.67,1.67,0,0,0,.7,1.33c.39.22.7,0,.7-.53a1.67,1.67,0,0,0-.7-1.33C388.88,403,388.57,403.2,388.57,403.71Z" transform="translate(-237.08 -21.33)" fill="#85bb65"/><path d="M386.82,396.5a3.34,3.34,0,0,0,1.39,2.67c.77.44,1.39,0,1.39-1.05a3.34,3.34,0,0,0-1.39-2.67C387.45,395,386.82,395.48,386.82,396.5Z" transform="translate(-237.08 -21.33)" fill="#85bb65"/><path d="M386.13,390.68a1.67,1.67,0,0,0,.7,1.33c.39.22.7,0,.7-.53a1.67,1.67,0,0,0-.7-1.33C386.44,389.93,386.13,390.16,386.13,390.68Z" transform="translate(-237.08 -21.33)" fill="#85bb65"/><path d="M392.46,396s-.46,7.33-.46,10V411l-6.16-3.56s.7-13.86.7-14.94Z" transform="translate(-237.08 -21.33)" fill="#aed696"/><polygon points="149.42 385.89 153.94 388.83 154.49 375.52 149.97 372.59 149.42 385.89" fill="none" stroke="#557841" stroke-miterlimit="10" stroke-width="2"/><path d="M390.14,396.95a1.67,1.67,0,0,0,.7,1.33c.39.22.7,0,.7-.53a1.67,1.67,0,0,0-.7-1.33C390.45,396.2,390.14,396.43,390.14,396.95Z" transform="translate(-237.08 -21.33)" fill="#85bb65"/><path d="M389.44,408.17a1.67,1.67,0,0,0,.7,1.33c.39.22.7,0,.7-.53a1.67,1.67,0,0,0-.7-1.33C389.75,407.42,389.44,407.65,389.44,408.17Z" transform="translate(-237.08 -21.33)" fill="#85bb65"/><path d="M387.7,401a3.34,3.34,0,0,0,1.39,2.67c.77.44,1.39,0,1.39-1.05a3.34,3.34,0,0,0-1.39-2.67C388.32,399.46,387.7,399.93,387.7,401Z" transform="translate(-237.08 -21.33)" fill="#85bb65"/><path d="M387,395.13a1.67,1.67,0,0,0,.7,1.33c.39.22.7,0,.7-.53a1.67,1.67,0,0,0-.7-1.33C387.31,394.38,387,394.62,387,395.13Z" transform="translate(-237.08 -21.33)" fill="#85bb65"/><path d="M383.16,404.85c.23.75,3,7.17,2.91,7.88,0,.09-.06.38-.12.81l.18-.7s-2.09,16.62-.35,21.65l.77,2.23c1.85,1.66,3.06-1,3.3-5.93s-.64-13.47-1.45-16.26a14.76,14.76,0,0,0,.7-3.94,2.69,2.69,0,0,0-.7-1.8l1.16-.26a.75.75,0,0,0-.12-.84c-.33-.49-1.5-.62-1.62-.63.12,0,1.4-.11,1.73.23s.46.11,0-.62-2.09-2.29-2.32-2.12-.35.88-.7.68.46-1.9,1.16-1.81,1.28.27,1.51.1.12-.55-.12-.84a11.43,11.43,0,0,0-1.86-1.07c-.46-.27-1.16,1.19-1.39,1.05s0-.62.46-1,.7-.22,1-.33.23-.64-.12-.84a4.47,4.47,0,0,0-2.44-.32C384.44,400.48,382.93,404.1,383.16,404.85Z" transform="translate(-237.08 -21.33)" fill="#b06c49"/><path d="M384.21,427.47c0,1.86.46,7.55,2.32,9.25h0l-.77-2.23c-1.74-5,.35-21.65.35-21.65l-.18.7C385.53,416.43,384.21,425.85,384.21,427.47Z" transform="translate(-237.08 -21.33)" fill="#7a4b33"/><path d="M387.81,407.23a.76.76,0,0,0-.65.55" transform="translate(-237.08 -21.33)" fill="#7a4b33"/><path d="M385.72,402.76a2.29,2.29,0,0,0-1.74.54" transform="translate(-237.08 -21.33)" fill="#7a4b33"/><path d="M450,518.24c0,3.84-2.33,5.6-5.21,3.94s-5.21-6.12-5.21-10,2.33-5.6,5.21-3.94S450,514.4,450,518.24Z" transform="translate(-237.08 -21.33)" fill="#dddbff"/><path d="M457.56,533.4c0,2.56-1.56,3.74-3.48,2.63a8.32,8.32,0,0,1-3.48-6.64c0-2.56,1.56-3.74,3.48-2.63A8.32,8.32,0,0,1,457.56,533.4Z" transform="translate(-237.08 -21.33)" fill="#dddbff"/><path d="M462.77,547.23c0,1.71-1,2.49-2.32,1.75a5.55,5.55,0,0,1-2.32-4.43c0-1.71,1-2.49,2.32-1.75A5.55,5.55,0,0,1,462.77,547.23Z" transform="translate(-237.08 -21.33)" fill="#dddbff"/><polygon points="576.7 725.17 740.65 665.29 307.17 482.66 576.7 725.17" fill="url(#c)"/><path d="M778.82,751.54l-198.42-130c-13.94-8.05-25.25-29.65-25.25-48.24L528.84,48.5c0-18.59,15.4-38.51,50.86-19.41L798.85,155.61c26.18,13.91,25.95,36.05,25.95,54.64V729C824.8,747.56,792.77,759.59,778.82,751.54Z" transform="translate(-237.08 -21.33)" fill="#8481ee"/><path d="M771.82,751.35,552.67,624.83c-13.94-8.05-25.25-29.65-25.25-48.24V57.88c0-18.59,11.3-27.14,25.25-19.09L771.82,165.31c13.94,8.05,25.25,29.65,25.25,48.24v518.7C797.07,750.86,785.76,759.4,771.82,751.35Z" transform="translate(-237.08 -21.33)" fill="#c5c3f8"/><polygon points="538.08 673.99 312.26 543.62 312.26 77.85 538.08 208.23 538.08 673.99" fill="#fcfcfc"/><polygon points="531.41 351.98 318.93 229.3 318.93 93.73 531.41 216.4 531.41 351.98" fill="#d6d6d6"/><path d="M691.86,158.51l-52.09-30.08c-2.72-1.57-4.92-5.78-4.92-9.4h0c0-3.62,2.2-5.29,4.92-3.72l52.09,30.08c2.72,1.57,4.92,5.78,4.92,9.4h0C696.78,158.42,694.58,160.08,691.86,158.51Z" transform="translate(-237.08 -21.33)" fill="#6e6aee"/><g opacity="0.82"><text transform="matrix(0.87, 0.5, 0, 1, 369.27, 177.65)" font-size="48.47" fill="#45a4ce" font-family="Helvetica-Condensed-Thin, Helvetica-Condensed-Thin">100,000</text><polygon points="363.34 178.17 348.37 136.03 348.37 167.75 347.62 167.32 347.62 132.04 362.59 174.18 362.59 142.46 363.34 142.89 363.34 178.17" fill="#45a4ce"/><polygon points="368.94 158.58 343.49 143.03 343.51 142.18 368.96 157.74 368.94 158.58" fill="#45a4ce"/><polygon points="368.94 165.45 343.49 149.9 343.51 149.05 368.96 164.61 368.94 165.45" fill="#45a4ce"/></g><polygon points="517.83 300.95 347.27 202.48 347.27 188.27 517.83 286.74 517.83 300.95" fill="#6e6aee" opacity="0.78"/><polygon points="395.39 254.86 347.75 227.36 347.75 213.15 395.39 240.65 395.39 254.86" fill="#6e6aee" opacity="0.85"/><polygon points="526.67 653.8 490.46 632.9 490.46 601.19 526.67 622.09 526.67 653.8" fill="#464396"/><polygon points="363 561.98 326.79 541.07 326.79 509.37 363 530.27 363 561.98" fill="#6e6aee"/><polygon points="490.43 601.1 488.74 602.8 525.21 655.39 526.9 653.69 526.9 622.31 490.43 601.1" fill="#48459c"/><polygon points="524.98 655.5 488.77 634.59 488.77 602.88 524.98 623.79 524.98 655.5" fill="#6e6aee"/><polygon points="524.26 608.08 326.07 493.66 326.07 256.4 524.26 370.83 524.26 608.08" fill="#6db1ce" opacity="0.56"/><polygon points="452.75 602.58 254.56 488.16 254.56 250.9 452.75 365.33 452.75 602.58" fill="#7471d6"/><path d="M550.93,343.46q-.06-.39-.14-.8c0-.26-.09-.52-.13-.78-2.74-13.86-12.44-28.54-24-35.21-13.68-7.9-24.77-1.58-24.77,14.12,0,13.86,8.64,30.39,20.09,39.51l.64.5.64.48,0-1.78h0l-.52-32.34,26.8,15.47" transform="translate(-237.08 -21.33)" fill="#dddbff"/><path d="M551.42,348.85c-.25,15.31-11.24,21.39-24.76,13.58h0l-.06-3.3,0-1.77h0l-.38-24.16L551,347.48l.45.4C551.41,348.21,551.42,348.53,551.42,348.85Z" transform="translate(-237.08 -21.33)" fill="#e5e13c"/><polygon points="398.68 367.45 346.27 337.2 346.27 329.55 398.68 359.8 398.68 367.45" fill="#dddbff"/><polygon points="432.98 403.66 346.27 353.6 346.27 345.94 432.98 396 432.98 403.66" fill="#dddbff" opacity="0.78"/><polygon points="414.87 405.23 346.27 365.63 346.27 357.97 414.87 397.58 414.87 405.23" fill="#dddbff" opacity="0.78"/><path d="M664.26,535.5l-3.44-2C655,530.13,650.2,521,650.2,513.22h0c0-7.82,4.76-11.42,10.62-8l3.44,2c5.87,3.39,10.62,12.47,10.62,20.29h0C674.89,535.29,670.13,538.89,664.26,535.5Z" transform="translate(-237.08 -21.33)" fill="#9c9928"/><text transform="matrix(0.87, 0.5, 0, 1, 273.85, 382.86)" font-size="22" fill="#dddbff" font-family="Helvetica-Condensed-Thin, Helvetica-Condensed-Thin">1</text><text transform="matrix(0.87, 0.5, 0, 1, 307.2, 401.56)" font-size="22" fill="#dddbff" font-family="Helvetica-Condensed-Thin, Helvetica-Condensed-Thin">2</text><text transform="matrix(0.87, 0.5, 0, 1, 341.5, 421.55)" font-size="22" fill="#dddbff" font-family="Helvetica-Condensed-Thin, Helvetica-Condensed-Thin">3</text><text transform="matrix(0.87, 0.5, 0, 1, 377.08, 442.45)" font-size="22" fill="#dddbff" font-family="Helvetica-Condensed-Thin, Helvetica-Condensed-Thin">4</text><text transform="matrix(0.87, 0.5, 0, 1, 418.21, 465.83)" font-size="22" fill="#dddbff" font-family="Helvetica-Condensed-Thin, Helvetica-Condensed-Thin">5</text><text transform="matrix(0.87, 0.5, 0, 1, 273.54, 417.84)" font-size="22" fill="#dddbff" font-family="Helvetica-Condensed-Thin, Helvetica-Condensed-Thin">6</text><text transform="matrix(0.87, 0.5, 0, 1, 307.36, 437.92)" font-size="22" fill="#dddbff" font-family="Helvetica-Condensed-Thin, Helvetica-Condensed-Thin">7</text><text transform="matrix(0.87, 0.5, 0, 1, 341.19, 457.27)" font-size="22" fill="#dddbff" font-family="Helvetica-Condensed-Thin, Helvetica-Condensed-Thin">8</text><text transform="matrix(0.87, 0.5, 0, 1, 377.08, 478.17)" font-size="22" fill="#dddbff" font-family="Helvetica-Condensed-Thin, Helvetica-Condensed-Thin">9<tspan x="9.99" y="0" xml:space="preserve" letter-spacing="-7.17em">    </tspan></text><text transform="matrix(0.87, 0.5, 0, 1, 415.82, 500.54)" font-size="22" fill="#dddbff" font-family="Helvetica-Condensed-Thin, Helvetica-Condensed-Thin">10</text><text transform="matrix(0.87, 0.5, 0, 1, 271.79, 451.46)" font-size="22" fill="#dddbff" font-family="Helvetica-Condensed-Thin, Helvetica-Condensed-Thin">11</text><text transform="matrix(0.87, 0.5, 0, 1, 304.03, 470.25)" font-size="22" fill="#dddbff" font-family="Helvetica-Condensed-Thin, Helvetica-Condensed-Thin">12</text><text transform="matrix(0.87, 0.5, 0, 1, 337.22, 489.6)" font-size="22" fill="#dddbff" font-family="Helvetica-Condensed-Thin, Helvetica-Condensed-Thin">13</text><text transform="matrix(0.87, 0.5, 0, 1, 375.01, 511.05)" font-size="22" fill="#dddbff" font-family="Helvetica-Condensed-Thin, Helvetica-Condensed-Thin">14</text><text transform="matrix(0.87, 0.5, 0, 1, 415.98, 534.52)" font-size="22" fill="#dddbff" font-family="Helvetica-Condensed-Thin, Helvetica-Condensed-Thin">15</text><text transform="matrix(0.87, 0.5, 0, 1, 271.95, 486.9)" font-size="22" fill="#dddbff" font-family="Helvetica-Condensed-Thin, Helvetica-Condensed-Thin">16</text><text transform="matrix(0.87, 0.5, 0, 1, 304.5, 506.24)" font-size="22" fill="#dddbff" font-family="Helvetica-Condensed-Thin, Helvetica-Condensed-Thin">17</text><text transform="matrix(0.87, 0.5, 0, 1, 374.7, 546.22)" font-size="22" fill="#dddbff" font-family="Helvetica-Condensed-Thin, Helvetica-Condensed-Thin">19</text><text transform="matrix(0.87, 0.5, 0, 1, 415.98, 571.15)" font-size="22" fill="#dddbff" font-family="Helvetica-Condensed-Thin, Helvetica-Condensed-Thin">20</text><text transform="matrix(0.87, 0.5, 0, 1, 336.9, 525.13)" font-size="22" fill="#dddbff" font-family="Helvetica-Condensed-Thin, Helvetica-Condensed-Thin">18</text><path d="M479.3,555.66s.46,3.65,1.14,3.88,3.65,8.22,3.42,11-3.88,9.13-6.16,9.59-3.65,3.2-3.65,3.2l-7.3-3.2s1.83-2.05,2.05-3.42-2.05-4.57-2.05-4.57l1.37-14.84Z" transform="translate(-237.08 -21.33)" fill="#b06c49"/><path d="M468.8,574.15s-4.79,2.28-6.85-9.82c-1.7-10,8.47-15,16-11.41a2.61,2.61,0,0,1-.2,4.8c-8.25,3.11-8.11,7.06-8.3,8.44C469.26,567.76,468.8,574.15,468.8,574.15Z" transform="translate(-237.08 -21.33)" fill="#111"/><polygon points="236.9 659.33 236.85 661.85 241.14 661.85 246.51 657.01 240.52 655.51 236.9 659.33" fill="#111"/><path d="M485.23,680.67a1.76,1.76,0,0,0,0,2.52c1.26,1.26,9.32-1.51,10.58-2.27s-1.26-2.77-2.77-2.77S485.23,680.67,485.23,680.67Z" transform="translate(-237.08 -21.33)" fill="#111"/><polygon points="234.08 607.17 235.59 659.33 240.38 659.33 242.4 603.14 234.08 607.17" fill="#214c66"/><path d="M471.16,628.51s7.81,16.63,11.09,19.15.25,32.5,1.76,33,4.79,0,4.79,0l2-57.59Z" transform="translate(-237.08 -21.33)" fill="#2b6285"/><path d="M493.2,624.35s0,8.31,1.26,9.07,5.29-.5,5.8-1.51-2.77-8.57-4-8.57A7.91,7.91,0,0,0,493.2,624.35Z" transform="translate(-237.08 -21.33)" fill="#b06c49"/><path d="M471.16,628.51s-9.32-4.79-9.83-14.11-1.26-32.76,1.51-34,9.83,0,9.83,0S486,588.7,488,592s2.77,32.5,2.77,32.5-.5,2.27-2.27,2.52S471.16,628.51,471.16,628.51Z" transform="translate(-237.08 -21.33)" fill="#d15f3f"/><path d="M493.2,614.53s-5.26,14.28-8.57,6.55-8-14.71-8.24-18.28,0-9.51,4.13-10.4,6.19.76,8.39,3.74,2.84,16.31,2,18.39S493.2,614.53,493.2,614.53Z" transform="translate(-237.08 -21.33)" fill="#ba5236"/><path d="M493.33,628.51s-3,1.51-6-5-9.57-17.89-9.83-20.91,0-8.06,3.78-8.82,7.56,0,9.57,2.52,7.56,26,6.8,27.72S493.33,628.51,493.33,628.51Z" transform="translate(-237.08 -21.33)" fill="#d17c64"/><path d="M706.07,636.18s-.27,8.16,0,9.79a16.44,16.44,0,0,1,0,5.17c-.27,1.9-5.44,6.8-5.44,6.8v3.26l-13.06-1.09A41,41,0,0,0,689.2,656c.27-1.09-1.63-7.34-1.63-7.34l13.33-12.51Z" transform="translate(-237.08 -21.33)" fill="#b06c49"/><path d="M689.07,654s-3-3.26-3.54-5.44-3.54-8.7,0-11.7,11.56-5.3,16.73-4.76,7.62,1.63,7.07,3.26-10.61,6.26-10.88,7.62-3,2.45-3,2.45-.82-1.63-1.9-.54,1.09,2.18,1.09,2.18S688.39,652.77,689.07,654Z" transform="translate(-237.08 -21.33)" fill="#111"/><path d="M703.49,756.27s-1.45,2.4.44,2.71,11.29-3.76,11.61-4.39v0a1.71,1.71,0,0,0-1.68-2.43l-7.11.56Z" transform="translate(-237.08 -21.33)" fill="#111"/><path d="M690,754.07s-1.45,2.4.44,2.71S701.73,753,702,752.4a23.1,23.1,0,0,0,.85-2.65l-9.63.77Z" transform="translate(-237.08 -21.33)" fill="#111"/><path d="M685.41,698.13s.63,19.13.94,22.27,1.25,29.17,2.2,31.68a3.71,3.71,0,0,0,5.33,2.2c2.2-.94-.63-6.9,0-8.16s1.88-49.88,1.88-49.88Z" transform="translate(-237.08 -21.33)" fill="#2e6b8e"/><path d="M690.49,701s-.37,6.81.89,8.07,5.65,8.78,6.59,12.23,3.14,33.88,3.14,33.88,5,.94,5.33,0,2.82-31.37,2.51-34.5-2.2-24.47-2.2-24.47Z" transform="translate(-237.08 -21.33)" fill="#3c8cba"/><path d="M726.51,663.62s3.14-2.2,4.39-2.82,1.57,3.14,1.57,3.14L729,668Z" transform="translate(-237.08 -21.33)" fill="#b06c49"/><path d="M685.05,688.66s-7.2-3.6-7.8-5.7.3-20.11,1.8-23.41,3-4.8,8.4-2.4,12.61,2.1,14.71.9,7.8-2.7,9.91,0,.3,9.91,1.8,11.41,3,2.4,5.1.3,8.4-6.9,8.4-6.9,2.7,3.9,2.4,4.8-15,16.21-16.51,15.31-5.7-7.5-5.7-7.5v21s-10.21,9.6-22.51,1.8c0-7.2.9-30.32.9-30.32s-2.4,11.41-2.4,12.31,5.1,5.7,5.1,5.7l-1.2,3.9Z" transform="translate(-237.08 -21.33)" fill="#111"/></svg>