<svg xmlns="http://www.w3.org/2000/svg" width="299.5" height="73" viewBox="0 0 299.5 73"><title>logo</title><path d="M476.68,190a24.55,24.55,0,1,0,0,49.1c.59,0,1.18,0,1.76-.07L474,225.36a11.13,11.13,0,1,1,12.67-5.9h.16l4.73,14.61A24.55,24.55,0,0,0,476.68,190Z" transform="translate(-452.13 -190)" fill="#6e6aee"/><path d="M507.69,253l3.78,8.93a17.68,17.68,0,1,1,3.17-31.75l-5.89,7.8a8,8,0,1,0-1.07,15Z" transform="translate(-452.13 -190)" fill="#6e6aee"/><polygon points="42.23 52.7 27.5 52.7 26.31 49.04 21.88 35.36 19.97 29.46 34.7 29.46 39.43 44.08 42.23 52.7" fill="#6e6aee"/><text transform="translate(119.59 59.52)" font-size="7.62" font-family="MyriadPro-Regular, Myriad Pro">Q</text><text transform="translate(62.99 55.36)" font-size="41.9" fill="#7571ff" font-family="ClearSans-Bold, Clear Sans" font-weight="700">Quick C<tspan x="145.53" y="0" letter-spacing="-0.02em">r</tspan><tspan x="161.88" y="0">edit</tspan></text></svg>